<svg xmlns="http://www.w3.org/2000/svg" width="8132" height="1024"><path d="M289.537 551.29c-10.456-15.314-24.933-37.881-43.431-67.703l-36.192-60.449-6.032 4.232v582.119H0V14.506h189.406l313.061 461.223 40.414 68.307c15.282 27 27.346 47.15 36.192 60.449l4.222-4.232V14.506h206.9v994.983H603.201L289.536 551.29zm1562.295 32.038a455.36 455.36 0 0 1-60.32 236.354c-37.719 65-93.178 117.844-159.852 152.329-69.608 34.394-146.179 52.278-223.786 52.278s-154.178-17.884-223.786-52.278c-66.229-34.665-121.254-87.498-158.642-152.329a455.247 455.247 0 0 1-60.32-236.354V441.274a455.243 455.243 0 0 1 60.32-236.354c37.46-65.135 92.708-118.194 159.244-152.935 69.608-34.391 146.179-52.279 223.786-52.279s154.178 17.887 223.786 52.279c66.674 34.484 122.133 87.334 159.852 152.331a455.367 455.367 0 0 1 60.32 236.354v142.658h-.602zm-234.647-174.092a236.255 236.255 0 0 0-13.198-91.26 235.895 235.895 0 0 0-47.122-79.205 199.67 199.67 0 0 0-68.994-46.285 199.255 199.255 0 0 0-81.806-14.163c-27.961-1.076-55.832 3.75-81.812 14.163s-49.483 26.183-68.994 46.285a235.895 235.895 0 0 0-47.122 79.205 236.274 236.274 0 0 0-13.198 91.26v206.128a236.249 236.249 0 0 0 13.198 91.262 235.896 235.896 0 0 0 47.122 79.203c19.51 20.101 43.014 35.87 68.994 46.285s53.85 15.24 81.812 14.167a199.314 199.314 0 0 0 81.806-14.167 199.73 199.73 0 0 0 68.994-46.285 235.896 235.896 0 0 0 47.122-79.203 236.267 236.267 0 0 0 13.198-91.262V409.236zm408.365-394.73h457.228v181.346h-115.814v635.317h115.814v181.344H2025.55V831.169h117.025V192.83H2025.55V14.506zm869.822 600.858c-1.843 31.015 2.548 62.085 12.908 91.365s26.485 56.181 47.411 79.101a202.698 202.698 0 0 0 69.09 46.026 202.366 202.366 0 0 0 81.709 14.426 192.08 192.08 0 0 0 81.547-11.559 192.412 192.412 0 0 0 69.253-44.658c36.653-49.357 54.224-110.339 49.465-171.677h203.878a444.441 444.441 0 0 1-51.272 220.034c-32.515 59.199-81.854 107.381-141.752 138.427a429.283 429.283 0 0 1-202.674 47.152h-22.926a481.73 481.73 0 0 1-223.184-50.778c-65.132-33.569-118.868-85.739-154.419-149.914a478.972 478.972 0 0 1-56.699-241.794V441.274a473.528 473.528 0 0 1 56.699-236.958c35.635-64.719 89.287-117.647 154.419-152.331A454.64 454.64 0 0 1 3086.582-.001h19.908a451.585 451.585 0 0 1 206.294 45.941c60.109 29.77 109.911 76.942 142.956 135.405a451.769 451.769 0 0 1 51.881 225.473h-212.932c4.204-61.37-13.541-122.234-50.068-171.674-17.992-20.231-40.285-36.162-65.235-46.623s-51.917-15.185-78.932-13.825a199.909 199.909 0 0 0-81.137 14.464 200.304 200.304 0 0 0-68.457 45.984c-20.835 22.98-36.906 49.888-47.261 79.155s-14.794 60.307-13.059 91.311v206.129l4.831 3.626zm784.161 394.125V14.506h700.922l-24.733 181.346h-454.21v217.615h422.237v181.346h-422.237v241.795h459.035l24.733 181.344h-705.747v-8.463zm865.593 0V14.506h226.202v809.41h408.365l24.733 185.573h-659.299zm1350.572-195.855H5502.41l-69.373 195.855h-215.341L5579.62 14.506h266.613l361.918 994.983h-236.454l-75.999-195.855zm-334.179-169.857h275.064c-35.388-109.211-79.221-239.175-131.5-389.894h-7.24l-136.325 389.894zm1038.101-93.091c-10.421-15.314-24.937-38.284-43.43-68.912l-36.201-60.449-6.024 4.232v583.932h-203.896V14.506h189.44l316.657 461.223 41.623 68.307c15.3 27 27.347 47.15 36.201 60.449l4.216-4.232V14.506h203.896v994.983h-189.38l-313.103-458.804zM7685.421 13.902a478.01 478.01 0 0 1 223.774 51.986c66.68 34.484 122.097 87.333 159.864 152.33 41.201 71.805 62.042 153.533 60.296 236.354V568.82c1.747 82.824-19.095 164.551-60.296 236.357-37.768 64.994-93.184 117.844-159.864 152.329a478.062 478.062 0 0 1-223.774 51.983h-376.41V14.506h376.41v-.605zM7533.387 830.56h152.034c27.949 1.078 55.778-3.747 81.8-14.161a199.846 199.846 0 0 0 68.969-46.285 234.577 234.577 0 0 0 47.104-79.203 236.323 236.323 0 0 0 13.252-91.262v-176.51a236.294 236.294 0 0 0-13.252-91.26 234.576 234.576 0 0 0-47.104-79.205 199.819 199.819 0 0 0-68.969-46.285c-26.022-10.414-53.85-15.24-81.8-14.164h-152.034V830.56z"/></svg>