<svg aria-hidden="true" style="position:absolute;width:0;height:0;overflow:hidden" xmlns="http://www.w3.org/2000/svg">
  <defs>
    <symbol id="icon-Vector" viewBox="0 0 254 32">
      <path d="M9.048 17.228a61.83 61.83 0 0 1-1.357-2.116L6.56 13.223l-.189.132v18.191H0V.453h5.919l9.783 14.413 1.263 2.135c.478.844.855 1.473 1.131 1.889l.132-.132V.453h6.466v31.093H18.85L9.048 17.227zm48.822 1.001a14.23 14.23 0 0 1-1.885 7.386 12.32 12.32 0 0 1-4.995 4.76 15.783 15.783 0 0 1-13.986 0 12.318 12.318 0 0 1-4.958-4.76 14.23 14.23 0 0 1-1.885-7.386V13.79a14.23 14.23 0 0 1 1.885-7.386 12.32 12.32 0 0 1 4.976-4.779 15.783 15.783 0 0 1 13.986 0 12.315 12.315 0 0 1 4.995 4.76 14.23 14.23 0 0 1 1.885 7.386v4.458h-.019zm-7.333-5.44a7.36 7.36 0 0 0-1.885-5.327 6.237 6.237 0 0 0-4.712-1.889 6.251 6.251 0 0 0-4.713 1.889 7.376 7.376 0 0 0-1.885 5.327v6.442a7.36 7.36 0 0 0 1.885 5.327 6.237 6.237 0 0 0 4.713 1.889c.874.034 1.745-.117 2.556-.443s1.546-.818 2.156-1.446a7.376 7.376 0 0 0 1.885-5.327V12.79zM63.298.453h14.288V6.12h-3.619v19.854h3.619v5.667H63.298v-5.667h3.657V6.026h-3.657V.453zM90.48 19.23a7.274 7.274 0 0 0 1.885 5.327 6.336 6.336 0 0 0 4.712 1.889 6.01 6.01 0 0 0 4.712-1.757 7.965 7.965 0 0 0 1.546-5.365h6.371a13.892 13.892 0 0 1-1.602 6.876 10.64 10.64 0 0 1-4.43 4.326 13.416 13.416 0 0 1-6.334 1.473h-.716a15.058 15.058 0 0 1-6.975-1.587 11.585 11.585 0 0 1-4.826-4.685 14.971 14.971 0 0 1-1.772-7.556v-4.383a14.804 14.804 0 0 1 1.772-7.405 11.891 11.891 0 0 1 4.826-4.76 14.216 14.216 0 0 1 6.805-1.625h.622a14.115 14.115 0 0 1 6.447 1.436 10.465 10.465 0 0 1 4.467 4.231 14.116 14.116 0 0 1 1.621 7.046h-6.654a8.097 8.097 0 0 0-1.565-5.365 5.654 5.654 0 0 0-4.506-1.889 6.255 6.255 0 0 0-4.675 1.889 7.32 7.32 0 0 0-1.885 5.327v6.442l.151.113zm24.505 12.317V.454h21.904l-.773 5.667h-14.194v6.8h13.195v5.667h-13.195v7.556h14.345l.773 5.667h-22.055v-.264zm27.05 0V.454h7.069v25.294h12.761l.773 5.799h-20.603zm42.206-6.121h-12.29l-2.168 6.12h-6.729L174.364.453h8.332l11.31 31.093h-7.389l-2.375-6.12zm-10.444-5.308h8.596a644.875 644.875 0 0 0-4.109-12.184h-.226l-4.26 12.184zm32.441-2.909a50.02 50.02 0 0 1-1.357-2.154l-1.131-1.889-.188.132v18.248h-6.372V.453h5.92l9.896 14.413 1.301 2.135c.478.844.855 1.473 1.131 1.889l.132-.132V.453h6.372v31.093h-5.918l-9.784-14.338zM240.169.434a14.94 14.94 0 0 1 6.993 1.625 12.33 12.33 0 0 1 4.996 4.76 14.23 14.23 0 0 1 1.884 7.386v3.57a14.24 14.24 0 0 1-1.884 7.386 12.323 12.323 0 0 1-4.996 4.76 14.94 14.94 0 0 1-6.993 1.624h-11.763V.452h11.763V.433zm-4.751 25.521h4.751a6.242 6.242 0 0 0 4.711-1.889 7.375 7.375 0 0 0 1.886-5.327v-5.516a7.375 7.375 0 0 0-1.886-5.327 6.242 6.242 0 0 0-4.711-1.889h-4.751v19.948z"/>
    </symbol>
  </defs>
</svg>
